# xmcd
#
# Track frame offsets: 
#        150
#        17476
#        29537
#        33370
#        52125
#        64992
#        79669
#        92816
#        104999
#        122973
#
# Disc length: 1941 seconds
#
# Revision: 0
# Processed by: cddbd v1.5.2PL0 Copyright (c) Steve Scherf et al.
# Submitted via: ExactAudioCopy v0.95b4
#
DISCID=8c07930a
DTITLE=John Wills - Washington
DYEAR=2008
DGENRE=Blues
TTITLE0=Tanzania (Don't Run)
TTITLE1=I Was Wrong
TTITLE2=Sparrow Song
TTITLE3=Annie
TTITLE4=Rift And The Lorry
TTITLE5=A Man Like That
TTITLE6=Adios (On The Streets Of Washington)
TTITLE7=Settle Down
TTITLE8=Judgement Day Blues
TTITLE9=East Hennepin (For Billy And The Gang At Nye's)
EXTD=
EXTT0=
EXTT1=
EXTT2=
EXTT3=
EXTT4=
EXTT5=
EXTT6=
EXTT7=
EXTT8=
EXTT9=
PLAYORDER=
